<?xml version="1.0" encoding="UTF-8"?>
<svg version="1.1" xmlns="http://www.w3.org/2000/svg" width="646" height="564">
<path d="M0 0 C213.18 0 426.36 0 646 0 C646 186.12 646 372.24 646 564 C432.82 564 219.64 564 0 564 C0 377.88 0 191.76 0 0 Z " fill="#231917" transform="translate(0,0)"/>
<path d="M0 0 C213.18 0 426.36 0 646 0 C646 186.12 646 372.24 646 564 C432.82 564 219.64 564 0 564 C0 377.88 0 191.76 0 0 Z M268.609375 24.25390625 C265.5245291 24.89157461 262.46849301 25.38269226 259.35546875 25.8515625 C252.8749588 26.91688627 246.78666669 28.74741643 240.5625 30.8125 C239.46719971 31.16997314 238.37189941 31.52744629 237.2434082 31.89575195 C229.72805817 34.37031161 222.32068222 36.99422633 215 40 C214.10925781 40.33902344 213.21851563 40.67804687 212.30078125 41.02734375 C191.69260676 49.10390865 170.90254001 60.67425375 154 75 C152.50473437 76.15200465 151.00472222 77.29787503 149.5 78.4375 C145.37144371 81.63403653 141.50104705 85.06741672 137.65234375 88.59375 C135.51104843 90.53636843 133.34101394 92.42511465 131.1484375 94.30859375 C127.09173253 97.85280783 123.35670029 101.62183259 119.6875 105.5625 C119.04014893 106.25722412 118.39279785 106.95194824 117.72583008 107.66772461 C107.60687893 118.65190673 99.09278961 130.47300559 91 143 C90.46246094 143.7940625 89.92492187 144.588125 89.37109375 145.40625 C86.30445814 150.01993461 84.51528334 154.67802924 83 160 C82.34 160 81.68 160 81 160 C76.02670345 170.1990447 71.44405957 180.40039883 67.67480469 191.10742188 C67.03993269 192.88800353 66.36878173 194.65553056 65.6953125 196.421875 C61.27077013 208.56875528 59.09633842 221.27554086 57 234 C56.80873535 235.12809082 56.6174707 236.25618164 56.42041016 237.41845703 C54.9008495 247.34760406 54.69252275 257.1138244 54.73925781 267.14208984 C54.74995867 269.86448572 54.73930908 272.58621799 54.7265625 275.30859375 C54.71048256 291.82053717 56.51308889 307.35177766 60.25 323.4375 C60.40339844 324.10466034 60.55679688 324.77182068 60.71484375 325.459198 C64.45390056 341.66330646 69.27787647 356.27146195 77 371 C78.3942527 373.97499779 79.71018703 376.97849368 81 380 C81.2990625 380.69351562 81.598125 381.38703125 81.90625 382.1015625 C82.60809066 383.73269218 83.30470956 385.36606746 84 387 C84.66 387 85.32 387 86 387 C86.23589844 387.84304688 86.47179687 388.68609375 86.71484375 389.5546875 C88.19550461 393.52411875 90.17464356 396.65270024 92.5625 400.125 C93.00577637 400.77879639 93.44905273 401.43259277 93.90576172 402.10620117 C98.0815938 408.2168305 102.46610176 414.14954328 107 420 C107.67933594 420.88558594 108.35867187 421.77117187 109.05859375 422.68359375 C112.80227241 427.47812958 116.72298602 431.85760977 121.08984375 436.08984375 C122.88445752 437.88445752 124.50160871 439.73861672 126.125 441.6875 C153.89819973 473.72385454 197.66321602 498.03961684 237.91455078 509.39746094 C239.6282608 509.89259514 241.32343566 510.45144433 243.01171875 511.02734375 C269.04861446 519.50209804 295.63077947 522.02120676 322.8125 522.125 C324.00431885 522.12983398 325.1961377 522.13466797 326.42407227 522.13964844 C338.18161838 522.11689871 349.80720149 521.36144063 361.4375 519.625 C362.34089111 519.49125977 363.24428223 519.35751953 364.17504883 519.21972656 C387.92784159 515.63073468 410.9720665 509.64164774 433 500 C433.84820312 499.63616211 434.69640625 499.27232422 435.5703125 498.89746094 C446.459106 494.22096791 456.87575132 489.18061545 467 483 C467.6388916 482.61730957 468.2777832 482.23461914 468.93603516 481.84033203 C478.45977587 476.13160995 487.35217025 469.9588005 496 463 C496.886875 462.30648438 497.77375 461.61296875 498.6875 460.8984375 C522.59457898 441.90084795 541.8083886 419.33513402 557.609375 393.2878418 C558.56105883 391.72214145 559.52525008 390.16399405 560.5 388.61254883 C564.30078641 382.48062153 567.31059722 376.19898605 570.125 369.5625 C570.54136719 368.60279297 570.95773437 367.64308594 571.38671875 366.65429688 C580.41461819 345.64108267 586.7891799 323.65373927 590 301 C590.1023999 300.28851807 590.2047998 299.57703613 590.31030273 298.84399414 C591.42230519 289.68321203 591.28766648 280.40155045 591.3125 271.1875 C591.31642761 269.79646057 591.31642761 269.79646057 591.32043457 268.37731934 C591.33062178 234.57471828 585.41392586 199.97099753 569 170 C567.99515117 167.66875071 566.99477753 165.33556463 566 163 C562.61179331 155.76092001 558.68250064 148.97701012 554.375 142.25 C553.76035889 141.28916504 553.14571777 140.32833008 552.51245117 139.33837891 C537.85246298 116.69948075 518.58773416 95.23590034 497 79 C496.42540039 78.56494141 495.85080078 78.12988281 495.25878906 77.68164062 C487.39455434 71.74559671 479.40800609 66.14535742 471 61 C469.58037649 60.11384599 468.16113744 59.22707592 466.7421875 58.33984375 C455.79658499 51.52916961 444.99754505 45.21158248 432.7578125 40.9921875 C429.90210291 39.96477923 427.15384576 38.78155768 424.375 37.5625 C393.23987562 24.53658062 356.9619763 18.78251197 323.375 18.75 C322.55763367 18.74866058 321.74026733 18.74732117 320.89813232 18.74594116 C303.16046656 18.75222481 285.95117709 20.43612146 268.609375 24.25390625 Z " fill="#FEFEFE" transform="translate(0,0)"/>
<path d="M0 0 C1.78120575 1.07841823 3.55417967 2.17050749 5.3203125 3.2734375 C7.29365997 4.47366119 9.26764078 5.67284405 11.2421875 6.87109375 C12.26248047 7.49516113 13.28277344 8.11922852 14.33398438 8.76220703 C19.37149194 11.81617623 24.47258253 14.75901342 29.5703125 17.7109375 C37.70497103 22.44172258 45.79529223 27.23916977 53.85229492 32.10083008 C60.49173705 36.09830954 67.18170589 40.00538407 73.8828125 43.8984375 C81.05096653 48.06299653 88.16251011 52.28521131 95.19921875 56.66796875 C100.92215115 60.15957732 106.74663321 63.47684871 112.5546875 66.82421875 C117.36477345 69.59741978 122.15865956 72.39751135 126.9453125 75.2109375 C127.65719727 75.62843262 128.36908203 76.04592773 129.10253906 76.47607422 C131.93122405 78.14053493 134.71370974 79.82736899 137.4453125 81.6484375 C136.75754057 86.39628246 135.58775907 90.92399583 134.2578125 95.5234375 C132.22215963 102.6996731 130.3545796 109.90581924 128.5703125 117.1484375 C126.42457921 125.84478298 124.16680183 134.50410372 121.8203125 143.1484375 C119.66451002 151.09344987 117.56448834 159.04120781 115.59765625 167.03515625 C114.63544591 170.9192335 113.63793847 174.79377218 112.63671875 178.66796875 C112.47184464 179.30832565 112.30697052 179.94868256 112.13710022 180.60844421 C111.2683011 183.97685875 110.38670149 187.3410742 109.48168945 190.69995117 C107.79435472 197.0163458 106.27306134 203.26602444 105.296875 209.7421875 C102.89160877 224.59915351 102.89160877 224.59915351 98.60400391 228.19091797 C93.81559641 230.7774121 88.6854535 231.82424803 83.39648438 232.92626953 C77.98967241 234.24934612 72.90569782 236.43355816 67.7578125 238.5234375 C66.24296265 239.11596313 66.24296265 239.11596313 64.69750977 239.72045898 C60.25917442 241.16449102 60.25917442 241.16449102 56.4453125 243.6484375 C54.67501432 243.85493944 52.8971587 243.99703226 51.11865234 244.11328125 C49.41085098 244.22845093 49.41085098 244.22845093 47.66854858 244.34594727 C45.80621078 244.46474243 45.80621078 244.46474243 43.90625 244.5859375 C42.63689606 244.67093506 41.36754211 244.75593262 40.0597229 244.84350586 C36.67270064 245.06989462 33.28547972 245.29257225 29.89807129 245.51306152 C25.14684619 245.82262669 20.39590305 246.13631165 15.64517212 246.45336914 C13.11554983 246.62199331 10.58574795 246.78794978 8.05575562 246.95092773 C2.4709694 247.32139706 -3.01924229 247.79605519 -8.5546875 248.6484375 C-13.3200554 249.07774039 -18.09364184 249.3862883 -22.8671875 249.7109375 C-24.13498047 249.80181641 -25.40277344 249.89269531 -26.70898438 249.98632812 C-33.67055457 250.46581483 -40.57642592 250.78606574 -47.5546875 250.6484375 C-49.39484248 247.3605397 -51.22563797 244.06752424 -53.0546875 240.7734375 C-53.57933594 239.83628906 -54.10398437 238.89914062 -54.64453125 237.93359375 C-55.14082031 237.03769531 -55.63710938 236.14179688 -56.1484375 235.21875 C-56.60927734 234.39133301 -57.07011719 233.56391602 -57.54492188 232.71142578 C-58.5546875 230.6484375 -58.5546875 230.6484375 -58.5546875 228.6484375 C-59.2146875 228.6484375 -59.8746875 228.6484375 -60.5546875 228.6484375 C-60.77962891 228.11186523 -61.00457031 227.57529297 -61.23632812 227.02246094 C-63.79862799 221.06857979 -66.79373363 215.49498276 -70.0546875 209.8984375 C-70.5693457 209.00535889 -71.08400391 208.11228027 -71.61425781 207.19213867 C-73.25693583 204.34182865 -74.90519898 201.49481099 -76.5546875 198.6484375 C-78.80978826 194.75552204 -81.05893449 190.85925124 -83.3046875 186.9609375 C-83.82998047 186.05827148 -84.35527344 185.15560547 -84.89648438 184.22558594 C-85.37666016 183.39188477 -85.85683594 182.55818359 -86.3515625 181.69921875 C-86.99109863 180.59574097 -86.99109863 180.59574097 -87.64355469 179.4699707 C-88.5546875 177.6484375 -88.5546875 177.6484375 -88.5546875 175.6484375 C-89.2146875 175.6484375 -89.8746875 175.6484375 -90.5546875 175.6484375 C-90.80089844 176.21433594 -91.04710937 176.78023437 -91.30078125 177.36328125 C-92.77004974 180.04092008 -94.53221185 181.97887362 -96.6171875 184.2109375 C-99.88487223 187.77140678 -103.01947943 191.3877667 -106.0546875 195.1484375 C-109.66617884 199.61264207 -113.44129444 203.87845864 -117.30859375 208.12109375 C-119.61656348 210.71806143 -121.81024613 213.38247763 -123.9921875 216.0859375 C-127.87984589 220.89632109 -131.99188141 225.44629539 -136.1875 229.98828125 C-139.05332006 233.20878201 -141.64240854 236.58374691 -144.1796875 240.06640625 C-144.6334375 240.58847656 -145.0871875 241.11054688 -145.5546875 241.6484375 C-146.2146875 241.6484375 -146.8746875 241.6484375 -147.5546875 241.6484375 C-147.83143311 241.02388672 -148.10817871 240.39933594 -148.39331055 239.75585938 C-149.67010591 236.88393342 -150.95607213 234.01620114 -152.2421875 231.1484375 C-152.67724609 230.16617188 -153.11230469 229.18390625 -153.56054688 228.171875 C-155.89536256 222.98339569 -158.3616438 218.0976104 -161.4675293 213.32910156 C-164.75329254 208.24956098 -167.21083809 202.66021051 -169.3671875 197.0234375 C-171.97582834 190.30035502 -175.3336367 183.94412566 -178.60595703 177.52685547 C-180.30319837 174.16643991 -181.92481734 170.76834038 -183.546875 167.37109375 C-184.44536038 165.47552286 -184.44536038 165.47552286 -186.5546875 164.6484375 C-186.8343335 165.38513672 -187.11397949 166.12183594 -187.40209961 166.88085938 C-188.44699735 169.38985339 -189.60181921 171.60264408 -190.99609375 173.9296875 C-191.48883789 174.75718506 -191.98158203 175.58468262 -192.48925781 176.43725586 C-193.02647461 177.3319458 -193.56369141 178.22663574 -194.1171875 179.1484375 C-195.29098589 181.11811946 -196.46412827 183.08819246 -197.63671875 185.05859375 C-198.26658691 186.11578613 -198.89645508 187.17297852 -199.54541016 188.26220703 C-202.786899 193.72508069 -205.99103755 199.20971994 -209.19754028 204.69317627 C-225.05993081 231.81126622 -225.05993081 231.81126622 -231.2421875 241.3984375 C-234.15861051 245.92906673 -236.7683133 250.57713489 -239.29296875 255.3359375 C-240.5546875 257.6484375 -240.5546875 257.6484375 -242.5546875 260.6484375 C-248.53076572 260.07864117 -253.80986293 258.79708177 -259.4921875 256.8984375 C-261.18313976 256.34886159 -262.87455555 255.80071007 -264.56640625 255.25390625 C-265.4073584 254.9811084 -266.24831055 254.70831055 -267.11474609 254.42724609 C-270.66105503 253.29529437 -274.22937499 252.2469213 -277.8046875 251.2109375 C-284.75368739 249.18616285 -291.68910245 247.1187044 -298.6171875 245.0234375 C-300.06303223 244.58946655 -300.06303223 244.58946655 -301.53808594 244.14672852 C-306.9627138 242.50128327 -312.2707708 240.70225671 -317.5546875 238.6484375 C-315.95021655 232.77182099 -312.98031712 227.86448405 -309.9296875 222.6484375 C-308.84494943 220.77479901 -307.7603143 218.90110092 -306.67578125 217.02734375 C-305.87889893 215.65666748 -305.87889893 215.65666748 -305.06591797 214.25830078 C-303.72719135 211.94634803 -302.40316869 209.62722688 -301.08984375 207.30078125 C-300.73035645 206.66462891 -300.37086914 206.02847656 -300.00048828 205.37304688 C-299.05845373 203.70338758 -298.117092 202.03334871 -297.17578125 200.36328125 C-295.5546875 197.6484375 -295.5546875 197.6484375 -294.02734375 195.71484375 C-292.45079041 193.50265087 -291.51909687 191.24000667 -290.49267578 188.73681641 C-288.48671387 184.27065341 -285.92778284 180.07775623 -283.4921875 175.8359375 C-282.3184622 173.77635399 -281.14529099 171.71645462 -279.97265625 169.65625 C-279.10326416 168.13112793 -279.10326416 168.13112793 -278.21630859 166.57519531 C-275.88500359 162.46886496 -273.59080318 158.34254879 -271.3046875 154.2109375 C-264.06587423 141.14709669 -256.70928488 128.15022031 -249.35888672 115.14892578 C-246.19176441 109.54641162 -243.02481749 103.94380865 -239.8671875 98.3359375 C-239.33194458 97.38557617 -239.33194458 97.38557617 -238.78588867 96.41601562 C-236.93421333 93.12227925 -235.09583931 89.82174839 -233.2734375 86.51171875 C-227.84638189 76.6643915 -222.25726574 66.92354844 -216.55200195 57.234375 C-212.27007954 49.94557785 -208.18946478 42.56507782 -204.19677734 35.11450195 C-202.9270481 32.74706978 -201.64784899 30.3849693 -200.3671875 28.0234375 C-199.73006836 26.82267578 -199.73006836 26.82267578 -199.08007812 25.59765625 C-198.66564453 24.83839844 -198.25121094 24.07914063 -197.82421875 23.296875 C-197.45917236 22.61802246 -197.09412598 21.93916992 -196.71801758 21.23974609 C-195.5546875 19.6484375 -195.5546875 19.6484375 -192.5546875 18.6484375 C-192.02681641 19.591427 -192.02681641 19.591427 -191.48828125 20.5534668 C-189.84652881 23.48252675 -188.20126663 26.40958807 -186.5546875 29.3359375 C-185.96469971 30.38491211 -185.37471191 31.43388672 -184.7668457 32.51464844 C-180.96753487 39.23782415 -177.04859197 45.84134359 -172.84765625 52.3203125 C-171.5546875 54.6484375 -171.5546875 54.6484375 -171.5546875 57.6484375 C-170.8946875 57.6484375 -170.2346875 57.6484375 -169.5546875 57.6484375 C-169.08160156 58.48503906 -168.60851562 59.32164062 -168.12109375 60.18359375 C-163.93386121 67.56416863 -159.65579759 74.88236124 -155.265625 82.14453125 C-153.06292683 85.7914109 -150.88932501 89.45501054 -148.71875 93.12109375 C-147.69385685 94.84656074 -146.66828932 96.5716245 -145.6423645 98.29647827 C-144.62719992 100.0065711 -143.61716173 101.71970373 -142.60717773 103.43286133 C-141.98270752 104.48111084 -141.3582373 105.52936035 -140.71484375 106.609375 C-139.87385132 108.02935791 -139.87385132 108.02935791 -139.01586914 109.47802734 C-137.7365958 111.76256736 -137.7365958 111.76256736 -135.5546875 112.6484375 C-135.1834375 111.82666016 -135.1834375 111.82666016 -134.8046875 110.98828125 C-133.29829319 108.1684994 -131.48933239 105.75706837 -129.5546875 103.2109375 C-128.96192017 102.42867798 -128.96192017 102.42867798 -128.35717773 101.63061523 C-127.09388325 99.96663696 -125.82518856 98.30691849 -124.5546875 96.6484375 C-123.94197998 95.84792969 -123.94197998 95.84792969 -123.31689453 95.03125 C-120.82498015 91.77877122 -118.32443909 88.53300988 -115.82080078 85.28955078 C-113.72901543 82.57821621 -111.64208193 79.86315298 -109.5546875 77.1484375 C-108.72137777 76.06508601 -107.88804443 74.98175268 -107.0546875 73.8984375 C-106.4359375 73.0940625 -106.4359375 73.0940625 -105.8046875 72.2734375 C-104.5546875 70.6484375 -103.3046875 69.0234375 -102.0546875 67.3984375 C-101.4364209 66.59466675 -101.4364209 66.59466675 -100.80566406 65.7746582 C-99.9691384 64.68720749 -99.13254947 63.59980543 -98.29589844 62.51245117 C-96.26089462 59.86749963 -94.22712217 57.22162638 -92.1953125 54.57421875 C-86.74342577 47.47429437 -81.26215274 40.39787337 -75.75390625 33.34155273 C-72.97895418 29.78328659 -70.2184318 26.21696938 -67.5078125 22.609375 C-67.04761719 21.99964844 -66.58742188 21.38992187 -66.11328125 20.76171875 C-64.88581992 19.13121041 -63.66531534 17.49547153 -62.4453125 15.859375 C-61.82140625 15.12976563 -61.1975 14.40015625 -60.5546875 13.6484375 C-59.8946875 13.6484375 -59.2346875 13.6484375 -58.5546875 13.6484375 C-58.5546875 12.9884375 -58.5546875 12.3284375 -58.5546875 11.6484375 C-38.66114022 5.9111856 -38.66114022 5.9111856 -29.4921875 3.5234375 C-23.96143459 2.08010505 -18.6006577 0.36042651 -13.23828125 -1.6171875 C-7.91355976 -3.07431653 -4.78721036 -2.6902849 0 0 Z " fill="#FDFDFD" transform="translate(416.5546875,121.3515625)"/>
<path d="M0 0 C1.78120575 1.07841823 3.55417967 2.17050749 5.3203125 3.2734375 C7.29365997 4.47366119 9.26764078 5.67284405 11.2421875 6.87109375 C12.77262695 7.80719482 12.77262695 7.80719482 14.33398438 8.76220703 C19.37149194 11.81617623 24.47258253 14.75901342 29.5703125 17.7109375 C37.70497103 22.44172258 45.79529223 27.23916977 53.85229492 32.10083008 C60.49173705 36.09830954 67.18170589 40.00538407 73.8828125 43.8984375 C81.05096653 48.06299653 88.16251011 52.28521131 95.19921875 56.66796875 C100.92215115 60.15957732 106.74663321 63.47684871 112.5546875 66.82421875 C117.36477345 69.59741978 122.15865956 72.39751135 126.9453125 75.2109375 C127.65719727 75.62843262 128.36908203 76.04592773 129.10253906 76.47607422 C131.93122405 78.14053493 134.71370974 79.82736899 137.4453125 81.6484375 C136.75754057 86.39628246 135.58775907 90.92399583 134.2578125 95.5234375 C132.22215963 102.6996731 130.3545796 109.90581924 128.5703125 117.1484375 C126.42457921 125.84478298 124.16680183 134.50410372 121.8203125 143.1484375 C119.66451002 151.09344987 117.56448834 159.04120781 115.59765625 167.03515625 C114.63544591 170.9192335 113.63793847 174.79377218 112.63671875 178.66796875 C112.47184464 179.30832565 112.30697052 179.94868256 112.13710022 180.60844421 C111.2683011 183.97685875 110.38670149 187.3410742 109.48168945 190.69995117 C107.79435472 197.0163458 106.27306134 203.26602444 105.296875 209.7421875 C102.89160877 224.59915351 102.89160877 224.59915351 98.60400391 228.19091797 C93.80960408 230.7806489 88.67440803 231.82365205 83.37890625 232.92626953 C78.05425936 234.23704729 73.06576199 236.43339905 68.0078125 238.5234375 C66.0947591 239.29740406 64.17952383 240.06600871 62.26171875 240.828125 C61.45162354 241.15538574 60.64152832 241.48264648 59.80688477 241.81982422 C57.36880713 242.67528121 54.98739517 243.20194313 52.4453125 243.6484375 C52.09339844 242.88402344 51.74148438 242.11960937 51.37890625 241.33203125 C42.26443149 221.53892701 42.26443149 221.53892701 32.63574219 201.99267578 C29.94827964 196.70042488 27.29113559 191.39286888 24.6328125 186.0859375 C24.3296814 185.48110535 24.02655029 184.87627319 23.7142334 184.25311279 C19.18037406 175.20015944 14.75869716 166.09854735 10.41870117 156.95092773 C6.90425742 149.55981298 3.25947646 142.24003922 -0.42382812 134.93188477 C-3.78916494 128.23421641 -7.0332989 121.48476336 -10.2421875 114.7109375 C-13.91942651 106.95076692 -17.75198824 99.3245192 -21.8984375 91.8046875 C-23.64260723 88.48089235 -25.09411574 85.10574027 -26.5546875 81.6484375 C-27.92247081 78.65592754 -29.33039224 75.68289753 -30.7421875 72.7109375 C-31.13873535 71.8753833 -31.5352832 71.0398291 -31.94384766 70.17895508 C-35.70664858 62.28037517 -39.61393268 54.45927604 -43.5546875 46.6484375 C-45.47464809 42.83758566 -47.39036411 39.02462365 -49.3046875 35.2109375 C-49.76472168 34.29916748 -50.22475586 33.38739746 -50.69873047 32.44799805 C-52.81242182 28.23640065 -54.89597699 24.01137432 -56.8828125 19.73828125 C-57.20668945 19.04468506 -57.53056641 18.35108887 -57.86425781 17.63647461 C-58.5546875 15.6484375 -58.5546875 15.6484375 -58.5546875 11.6484375 C-38.66114022 5.9111856 -38.66114022 5.9111856 -29.4921875 3.5234375 C-23.96143459 2.08010505 -18.6006577 0.36042651 -13.23828125 -1.6171875 C-7.91355976 -3.07431653 -4.78721036 -2.6902849 0 0 Z " fill="#FCFCFC" transform="translate(416.5546875,121.3515625)"/>
<path d="M0 0 C3.82215313 0.64154343 6.37141498 2.41473269 9.5625 4.5625 C16.81122489 9.35147472 24.26840564 13.77634617 31.75 18.1875 C32.328638 18.5287088 32.907276 18.8699176 33.50344849 19.22146606 C36.30184317 20.8711008 39.10076387 22.51984058 41.89990234 24.16821289 C45.52485136 26.31012441 49.13639224 28.47356664 52.74414062 30.64428711 C54.86487189 31.91879152 56.98996049 33.18559402 59.1171875 34.44921875 C59.74367188 34.82240234 60.37015625 35.19558594 61.015625 35.58007812 C62.27766197 36.3317325 63.54071926 37.08167588 64.8046875 37.83007812 C68.00176296 39.73833254 71.0788475 41.68803257 74 44 C72.51993197 47.36448454 70.60866795 49.74003645 68.125 52.4375 C67.32578125 53.31019531 66.5265625 54.18289062 65.703125 55.08203125 C64.81109375 56.04496094 63.9190625 57.00789063 63 58 C61.99466681 59.08712413 60.98946263 60.17436758 59.984375 61.26171875 C58.4252953 62.94828583 56.86603637 64.63467888 55.30541992 66.31982422 C52.08871992 69.79914344 48.93928739 73.32571409 45.83984375 76.91015625 C42.96771834 80.17254923 40.01324873 83.35944459 37.06640625 86.55419922 C33.74513087 90.16262653 30.5089223 93.83176168 27.33984375 97.57421875 C26 99 26 99 24 100 C21.85428165 93.54288478 19.85143704 87.40790182 19.35180664 80.6081543 C18.9169805 77.3845265 18.08600104 74.36988633 17.21875 71.234375 C14.99156625 63.06706969 12.9781698 54.85561637 11 46.625 C10.64912057 45.16828655 10.29820885 43.71158089 9.94726562 42.25488281 C9.26713534 39.43027465 8.58833052 36.60535177 7.91015625 33.78027344 C7.14547426 30.60421768 6.37261621 27.43040975 5.59375 24.2578125 C5.22897101 22.75525582 4.86436421 21.25265732 4.5 19.75 C4.2009375 18.52796875 3.901875 17.3059375 3.59375 16.046875 C3.05196339 13.26665426 2.87272599 10.82124064 3 8 C2.34 8 1.68 8 1 8 C0.67 5.36 0.34 2.72 0 0 Z " fill="#241B19" transform="translate(443,183)"/>
<path d="M0 0 C4.46255592 4.82209834 6.87228191 10.61519987 9.625 16.5 C10.15061523 17.60915771 10.67623047 18.71831543 11.21777344 19.86108398 C12.81737044 23.23814506 14.40885819 26.61894882 16 30 C17.74598574 33.68941245 19.49686384 37.37648053 21.25 41.0625 C21.66161377 41.9285083 22.07322754 42.7945166 22.49731445 43.68676758 C25.84631022 50.71583088 29.30209426 57.68615711 32.80859375 64.63769531 C40.10882145 79.11249105 47.36389101 93.60206084 54.30102539 108.25512695 C57.12338634 114.21097941 60.04668302 120.08669703 63.171875 125.890625 C64 128 64 128 63 131 C62.58492188 130.16984375 62.16984375 129.3396875 61.7421875 128.484375 C61.4536792 127.90743896 61.1651709 127.33050293 60.86791992 126.73608398 C60.18553259 125.37114154 59.50341869 124.00606236 58.8215332 122.64086914 C56.46681113 117.92793651 54.10508595 113.21859621 51.73828125 108.51171875 C45.70275181 96.49454101 39.73801207 84.45286601 33.97338867 72.30249023 C30.45894492 64.91137548 26.81416396 57.59160172 23.13085938 50.28344727 C19.28422553 42.62790511 15.5993509 34.9006786 11.93823242 27.1550293 C8.65277017 20.24702722 5.12633313 13.5221486 1.36328125 6.86328125 C0 4 0 4 0 0 Z " fill="#8E8C8B" transform="translate(393,206)"/>
<path d="M0 0 C2.30406939 2.10580846 3.65493298 3.99763871 4.9375 6.8359375 C5.27523438 7.57070313 5.61296875 8.30546875 5.9609375 9.0625 C6.47527344 10.2071875 6.47527344 10.2071875 7 11.375 C10.59644856 20.2690674 10.59644856 20.2690674 17 27 C15.35 27.33 13.7 27.66 12 28 C10.28616417 24.33606817 8.57730161 20.66986349 6.87304688 17.00146484 C6.29238479 15.75343107 5.71035931 14.50603071 5.12695312 13.25927734 C4.28939753 11.4687886 3.45712034 9.6758337 2.625 7.8828125 C2.12226563 6.80402832 1.61953125 5.72524414 1.1015625 4.61376953 C0 2 0 2 0 0 Z " fill="#8C8A8B" transform="translate(457,337)"/>
<path d="M0 0 C2.83473438 3.3470038 4.93525028 6.55249763 6.796875 10.51953125 C7.52197266 12.0519043 7.52197266 12.0519043 8.26171875 13.61523438 C8.75285156 14.67033203 9.24398438 15.72542969 9.75 16.8125 C10.50990234 18.42415039 10.50990234 18.42415039 11.28515625 20.06835938 C12.52942574 22.70949745 13.7674703 25.35336825 15 28 C14.34 28.66 13.68 29.32 13 30 C11.01147582 25.94201553 9.03583734 21.87788851 7.0625 17.8125 C6.49853516 16.66201172 5.93457031 15.51152344 5.35351562 14.32617188 C4.81533203 13.21435547 4.27714844 12.10253906 3.72265625 10.95703125 C3.22515869 9.93585205 2.72766113 8.91467285 2.21508789 7.86254883 C1.08888433 5.20939699 0.44002348 2.83849345 0 0 Z " fill="#949392" transform="translate(393,206)"/>
<path d="M0 0 C0.33 0.66 0.66 1.32 1 2 C0.21366078 3.14949588 -0.57926258 4.29448989 -1.375 5.4375 C-1.81585938 6.07558594 -2.25671875 6.71367187 -2.7109375 7.37109375 C-4 9 -4 9 -6 10 C-6 10.66 -6 11.32 -6 12 C-7.75 13.7265625 -7.75 13.7265625 -10 15.625 C-11.11375 16.57246094 -11.11375 16.57246094 -12.25 17.5390625 C-12.8275 18.02117187 -13.405 18.50328125 -14 19 C-14.66 18.67 -15.32 18.34 -16 18 C-15.43152344 17.3709375 -14.86304688 16.741875 -14.27734375 16.09375 C-9.4728318 10.76788032 -4.70399152 5.41488413 0 0 Z " fill="#D8D7D5" transform="translate(497,250)"/>
<path d="M0 0 C0.2475 0.639375 0.495 1.27875 0.75 1.9375 C1.81562433 4.18741541 1.81562433 4.18741541 4.125 4.75 C4.74375 4.8325 5.3625 4.915 6 5 C6 8 6 8 5 10 C1.17475764 8.549046 -0.19090966 6.61818068 -2 3 C-2 2.34 -2 1.68 -2 1 C-1.34 0.67 -0.68 0.34 0 0 Z " fill="#2E2523" transform="translate(276,224)"/>
<path d="M0 0 C0.703125 1.70703125 0.703125 1.70703125 1 4 C-0.328125 6.32421875 -0.328125 6.32421875 -2.25 8.6875 C-2.87390625 9.47511719 -3.4978125 10.26273438 -4.140625 11.07421875 C-6 13 -6 13 -9 14 C-7.65070536 10.16336928 -5.92248975 7.34827431 -3.375 4.1875 C-2.42753906 3.00220703 -2.42753906 3.00220703 -1.4609375 1.79296875 C-0.97882813 1.20128906 -0.49671875 0.60960938 0 0 Z " fill="#423A38" transform="translate(103,126)"/>
<path d="M0 0 C-1.98 0.99 -3.96 1.98 -6 3 C-6 3.66 -6 4.32 -6 5 C-12.625 5.25 -12.625 5.25 -16 3 C-14.08802961 2.29954544 -12.17019565 1.615081 -10.25 0.9375 C-9.18265625 0.55464844 -8.1153125 0.17179687 -7.015625 -0.22265625 C-4.07719958 -0.98010011 -2.77651052 -1.07151741 0 0 Z " fill="#494140" transform="translate(257,28)"/>
<path d="M0 0 C0.33 0.99 0.66 1.98 1 3 C0.01 3.33 -0.98 3.66 -2 4 C-2.268125 4.556875 -2.53625 5.11375 -2.8125 5.6875 C-4.57902504 9.12757508 -7.21136826 11.33261312 -10 14 C-10.66 13.67 -11.32 13.34 -12 13 C-8.04 8.71 -4.08 4.42 0 0 Z " fill="#D8D6D5" transform="translate(531,429)"/>
<path d="M0 0 C3.26954202 0.56371414 4.82575883 1.49962266 7 4 C6.01 4 5.02 4 4 4 C3.67 5.32 3.34 6.64 3 8 C2.34 8 1.68 8 1 8 C0.67 5.36 0.34 2.72 0 0 Z " fill="#5A5452" transform="translate(443,183)"/>
<path d="M0 0 C0 3 0 3 -2.1875 5.5625 C-4.81277706 7.83774012 -6.72443519 8.97053677 -10 10 C-7.02911382 6.00073014 -3.87051275 3.07881696 0 0 Z " fill="#D5D3D2" transform="translate(518,443)"/>
<path d="M0 0 C0.33 1.32 0.66 2.64 1 4 C0.01 4.495 0.01 4.495 -1 5 C-1.309375 5.99 -1.61875 6.98 -1.9375 8 C-2.288125 8.99 -2.63875 9.98 -3 11 C-3.99 11.33 -4.98 11.66 -6 12 C-4.43358249 7.69235185 -2.31663844 3.93828536 0 0 Z " fill="#CBC9C7" transform="translate(115,330)"/>
<path d="M0 0 C-0.99 0.680625 -0.99 0.680625 -2 1.375 C-2.99 2.179375 -2.99 2.179375 -4 3 C-4 3.66 -4 4.32 -4 5 C-6.31 4.34 -8.62 3.68 -11 3 C-4.23255814 -1.51162791 -4.23255814 -1.51162791 0 0 Z " fill="#403836" transform="translate(234,35)"/>
<path d="M0 0 C0.75 1.625 0.75 1.625 1 4 C-0.8125 7.25 -0.8125 7.25 -3 10 C-3.66 10 -4.32 10 -5 10 C-3.66511872 6.40608886 -2.03977277 3.24509304 0 0 Z " fill="#4E4744" transform="translate(220,303)"/>
<path d="M0 0 C0.99 0 1.98 0 3 0 C3 2.31 3 4.62 3 7 C2.34 6.67 1.68 6.34 1 6 C0.34 6.66 -0.32 7.32 -1 8 C-0.67 5.36 -0.34 2.72 0 0 Z " fill="#3B3331" transform="translate(61,213)"/>
<path d="M0 0 C0 4.38968456 -2.12805101 5.76905739 -5 9 C-5.99 8.67 -6.98 8.34 -8 8 C-5.36 5.36 -2.72 2.72 0 0 Z " fill="#5A5352" transform="translate(133,92)"/>
<path d="M0 0 C1.125 1.75 1.125 1.75 2 4 C1.03284133 6.65968633 -0.41948242 8.62922362 -2 11 C-1.85892253 9.54119891 -1.71197585 8.08296449 -1.5625 6.625 C-1.48128906 5.81289063 -1.40007813 5.00078125 -1.31640625 4.1640625 C-1 2 -1 2 0 0 Z " fill="#4E4644" transform="translate(538,263)"/>
<path d="M0 0 C0.433125 0.61875 0.86625 1.2375 1.3125 1.875 C2.99740483 4.2197245 2.99740483 4.2197245 6 6 C4.35 6.33 2.7 6.66 1 7 C0.34 5.02 -0.32 3.04 -1 1 C-0.67 0.67 -0.34 0.34 0 0 Z " fill="#9B9898" transform="translate(468,358)"/>
<path d="M0 0 C0.33 0.66 0.66 1.32 1 2 C0.21654285 3.17219543 -0.57702836 4.33763668 -1.375 5.5 C-1.81585938 6.1496875 -2.25671875 6.799375 -2.7109375 7.46875 C-3.13632813 7.9740625 -3.56171875 8.479375 -4 9 C-4.66 9 -5.32 9 -6 9 C-4.47291037 5.56404834 -2.40072955 2.88087546 0 0 Z " fill="#4F4846" transform="translate(113,113)"/>
<path d="M0 0 C0.99 0.66 1.98 1.32 3 2 C0.03 4.475 0.03 4.475 -3 7 C-3.66 6.67 -4.32 6.34 -5 6 C-3.35 4.02 -1.7 2.04 0 0 Z " fill="#E0DEDD" transform="translate(537,422)"/>
<path d="M0 0 C0.33 0.99 0.66 1.98 1 3 C-0.65 4.65 -2.3 6.3 -4 8 C-4.66 7.67 -5.32 7.34 -6 7 C-4.02 4.69 -2.04 2.38 0 0 Z " fill="#413A38" transform="translate(312,314)"/>
<path d="M0 0 C0.33 0.66 0.66 1.32 1 2 C-0.65 3.98 -2.3 5.96 -4 8 C-4.66 7.67 -5.32 7.34 -6 7 C-4.02 4.69 -2.04 2.38 0 0 Z " fill="#CDCAC9" transform="translate(497,250)"/>
</svg>
